<svg id="Outline" height="512" viewBox="0 0 512 512" width="512" xmlns="http://www.w3.org/2000/svg"><path d="m144 224h16v16h-16z"/><path d="m184 256h16v16h-16z"/><path d="m144 288h16v16h-16z"/><path d="m368 16h-48a8 8 0 0 0 -8 8v140.687l-32.566 32.566a80.556 80.556 0 0 0 -23.434 56.567v66.26a88.524 88.524 0 0 0 1.623 16.842l14.413 151.834a8 8 0 0 0 7.964 7.244h128a8 8 0 0 0 7.964-7.244l14.413-151.833a88.5 88.5 0 0 0 1.623-16.843v-66.26a80.556 80.556 0 0 0 -23.433-56.567l-32.567-32.566v-140.687a8 8 0 0 0 -8-8zm-8 16v40h-32v-40zm-88 288v-64h144v64zm128.724 160h-113.448l-13.668-144h140.785zm-3.471-271.433a64.439 64.439 0 0 1 17.194 31.433h-140.893a64.434 64.434 0 0 1 17.194-31.433l34.909-34.91a8 8 0 0 0 2.343-5.657v-80h32v80a8 8 0 0 0 2.343 5.657z"/><path d="m120 48a8 8 0 0 0 8-8v-16a8 8 0 0 0 -16 0v16a8 8 0 0 0 8 8z"/><path d="m112 88a8 8 0 0 0 16 0v-16a8 8 0 0 0 -16 0z"/><path d="m104 48h-16a8 8 0 0 0 0 16h16a8 8 0 0 0 0-16z"/><path d="m152 48h-16a8 8 0 0 0 0 16h16a8 8 0 0 0 0-16z"/><path d="m216 56a8 8 0 0 0 -8 8v16a8 8 0 0 0 16 0v-16a8 8 0 0 0 -8-8z"/><path d="m208 128a8 8 0 0 0 16 0v-16a8 8 0 0 0 -16 0z"/><path d="m200 88h-16a8 8 0 0 0 0 16h16a8 8 0 0 0 0-16z"/><path d="m248 88h-16a8 8 0 0 0 0 16h16a8 8 0 0 0 0-16z"/><path d="m96 152v128a72.116 72.116 0 0 0 48 67.872v100.128h-24a8 8 0 0 0 -7.155 4.422l-16 32a8 8 0 0 0 7.155 11.578h128a8 8 0 0 0 7.156-11.578l-16-32a8 8 0 0 0 -7.156-4.422h-24v-100.128a72.114 72.114 0 0 0 48-67.872v-128a8 8 0 0 0 -8-8h-128a8 8 0 0 0 -8 8zm123.056 328h-102.111l8-16h86.111zm-43.056-32h-16v-96.455a70.557 70.557 0 0 0 16 0zm-8-112a56.064 56.064 0 0 1 -56-56v-88h112v88a56.063 56.063 0 0 1 -56 56zm56-176v16h-112v-16z"/></svg>